<svg width="1600" height="1200" xmlns="http://www.w3.org/2000/svg">
 <!-- Created with Method Draw - http://github.com/duopixel/Method-Draw/ -->
 <g>
  <title>background</title>
  <rect fill="#fff" id="canvas_background" height="402" width="582" y="-1" x="-1"/>
 </g>
 <g>
  <title>Layer 1</title>
  <rect stroke="#000" id="svg_3" height="1216.064119" width="1624.085702" y="-6.032418" x="-4.043545" fill-opacity="null" stroke-opacity="null" stroke-width="1.5" fill="#fff"/>
  <path id="svg_4" d="m655.036376,1022.567275l113.82668,0l35.17332,-108.13487l35.17334,108.13487l113.82666,0l-92.08755,66.83026l35.17514,108.13487l-92.08759,-66.83208l-92.08757,66.83208l35.17515,-108.13487l-92.08758,-66.83026z" fill-opacity="null" stroke-opacity="null" stroke-width="1.5" stroke="#000" fill="#fff"/>
  <path id="svg_6" d="m806.800953,93.910329l-33.85641,-5.99613l12.47342,-6.51318c6.86035,-3.58231 13.08063,-7.05022 13.8228,-7.70647c1.84358,-1.63009 -21.11545,-37.10833 -23.99486,-37.07896c-1.26575,0.01435 -10.08571,13.75221 -19.59988,30.53185c-9.58302,16.90081 -19.12026,29.77207 -21.38301,28.85762c-26.78106,-10.82179 -48.63238,-21.77106 -48.63238,-24.36867c0,-1.7743 8.40277,-17.60187 18.67293,-35.17241l18.67294,-31.94638l50.91241,0l50.91241,0l13.28955,21.01844l13.28966,21.01844l13.86403,-7.11266c9.61084,-4.93073 13.27039,-5.63875 11.92874,-2.30832c-11.81259,29.32658 -29.43884,63.52189 -32.57199,63.19018c-2.16919,-0.22948 -19.17931,-3.11553 -37.80035,-6.41334l-0.00001,-0.00001zm-157.90158,130.83841c-12.88431,-22.18782 -24.43164,-42.96199 -25.66062,-46.16496c-1.26128,-3.28671 2.41348,-15.03122 8.43637,-26.96236l10.67094,-21.13916l-10.90837,-6.44379c-14.51679,-8.57526 -9.12079,-11.21638 29.38814,-14.38432l30.43462,-2.50365l11.93788,31.54266c6.56593,17.34845 12.77805,33.78311 13.80486,36.52168c1.07085,2.85602 -4.05412,0.95576 -12.01902,-4.45653l-13.88588,-9.43578l-9.69341,18.71187c-5.33128,10.2917 -9.769,19.85884 -9.86144,21.26031c-0.09266,1.40147 16.26999,3.00525 36.36115,3.56384l36.52929,1.01558l2.3839,26.7207c1.3112,14.69647 2.11298,26.91713 1.78191,27.15706c-0.33105,0.23969 -17.62818,1.53915 -38.43802,2.88736l-37.83614,2.4512l-23.42616,-40.34174l0,0.00003zm144.19484,39.20346c-22.11887,-33.38463 -22.50333,-30.90141 10.37228,-66.98763l21.10391,-23.16492l-2.24142,16.92821l-2.24152,16.92822l23.64932,0c13.0071,0 23.64944,-1.04019 23.64944,-2.31137c0,-1.27139 -7.21684,-15.55066 -16.03735,-31.73212c-8.82051,-16.18146 -16.00386,-30.77765 -15.96307,-32.436c0.09158,-3.71849 46.32753,-34.42394 48.52559,-32.22591c0.87094,0.87095 9.45139,16.38289 19.06769,34.47134l17.48441,32.8876l-23.52576,37.94727c-12.93936,20.87074 -25.37122,39.98283 -27.62622,42.47105c-2.25526,2.48822 -14.86537,5.52936 -28.02258,6.75787c-25.11388,2.34528 -24.43022,1.7804 -28.11249,23.22583c-0.64439,3.75308 -8.1586,-4.76279 -20.08223,-22.75946l0,0.00002z" fill-opacity="null" stroke-opacity="null" stroke-width="1.5" stroke="#000" fill="#fff"/>
  <path id="svg_8" d="m1449.463578,5.917173c-80.3511,0 -145.50004,43.31243 -145.50004,96.74474c0,30.56227 21.38675,57.79297 54.68462,75.51593c-4.73782,15.71271 -14.19292,33.11575 -32.46717,48.50804c0,0 42.65602,-2.82466 72.78463,-33.39108c1.7345,0.42561 3.52987,0.74596 5.28078,1.13896c-1.64549,-4.91217 -2.61422,-10.01866 -2.61422,-15.33182c0,-36.04973 40.11905,-64.27756 91.35863,-64.27756c36.80342,0 67.77124,14.61842 82.34897,36.18755c12.40991,-14.23764 19.62378,-30.72852 19.62378,-48.3623c0,-53.42003 -65.14893,-96.73246 -145.49997,-96.73246l-0.00001,0zm124.25104,173.19301c0,-29.63838 -36.13483,-53.68361 -80.73599,-53.68361c-44.57683,0 -80.73203,24.04523 -80.73203,53.68361c0,29.65428 36.1552,53.68753 80.73203,53.68753c9.87251,0 19.27516,-1.23618 28.01714,-3.39209c16.71373,16.96906 40.38206,18.52942 40.38206,18.52942c-10.13583,-8.54349 -15.3721,-18.19742 -18.00662,-26.92308c18.46475,-9.82388 30.34341,-24.93292 30.34341,-41.90178z" fill-opacity="null" stroke-opacity="null" stroke-width="1.5" stroke="#000" fill="#fff"/>
  <path stroke="#000" id="svg_12" d="m149.495948,63.055329c31.015486,0 56.310505,22.124418 56.310505,49.239763s-25.295019,49.239763 -56.310505,49.239763c-31.015486,0 -56.310505,-22.124418 -56.310505,-49.239763s25.295019,-49.239763 56.310505,-49.239763zm-142.828519,49.006447c3.975239,-18.452231 11.505571,-30.959983 18.604982,-40.525928c-0.53865,1.308597 -0.969571,2.627338 -1.486675,3.935935c25.208835,-64.466151 126.087267,-99.412789 204.008423,-55.082801c0.603288,2.738924 0.786429,5.457559 0.786429,8.155906c0,-0.517352 0.064638,-0.994128 0.043092,-1.521624c18.77735,-1.359318 41.519167,20.907118 61.7401,61.706939c10.266675,23.098257 13.983362,48.387654 4.460025,78.03904c-5.558871,17.305941 -14.306553,35.058224 -26.921743,48.833997c-37.393105,40.850541 -94.673181,57.5174 -128.026409,49.047024c-0.043092,0.010144 -0.096957,0.030432 -0.150822,0.040577c-64.304075,-1.26802 -113.05193,-42.889518 -130.622703,-97.069488c-6.323755,-19.557945 -6.733129,-35.565433 -2.434699,-55.559576zm253.079467,96.917325c10.342086,-11.280308 18.906626,-26.892174 24.767142,-45.16181c7.896614,-24.548872 6.59308,-47.170354 -4.082969,-71.161298c-10.837644,-21.840381 -21.416737,-36.194371 -30.519927,-44.827053c-1.615951,7.526968 -5.612736,16.514696 -11.990356,26.871886c-2.348515,3.844637 -4.94481,7.111058 -7.45492,10.265892c-1.928368,2.404166 -3.83519,4.808333 -5.526552,7.395094c-1.335853,2.049121 -2.574749,4.514152 -3.813644,7.476248c2.574749,27.937023 -9.609522,52.120705 -33.913424,67.752859l27.428074,22.824365l2.176147,1.734652c2.240785,1.734652 4.815534,3.783772 7.013227,5.974912c14.651289,14.64817 2.693252,28.718123 -3.08108,35.484279l-0.732564,0.882542c-2.553203,3.012816 -5.526552,6.289381 -8.78,9.515224c17.053669,-7.790717 34.161203,-19.355061 48.510848,-35.027792zm-240.356547,-44.329989c17.23681,53.074257 63.959339,88.254211 119.257181,89.867133c26.770921,-5.914047 46.991854,-18.056609 60.178014,-36.082785c-0.043092,-0.040577 -0.10773,-0.081153 -0.161595,-0.131874l-53.261744,-38.913006c-23.980712,-1.257876 -41.519167,-9.008016 -52.216762,-23.108401c-13.164614,-14.323557 -19.305228,-30.686091 -18.2387,-49.310772c-19.574553,3.824349 -36.509719,9.160178 -52.302946,19.101457l-1.249669,0.791245l-1.443583,0.436199c-1.680589,0.497064 -3.350405,0.770956 -4.94481,0.821677c-1.174258,12.578761 0.226233,23.66633 4.384614,36.529128zm-2.747117,-46.997903c21.018136,-13.248276 43.759952,-18.939151 71.037204,-23.179411c-5.720466,23.919934 0.904933,41.307028 14.285007,55.914622c9.501792,12.52804 25.661301,18.482663 47.33659,19.020304l56.235094,41.104145c5.354184,4.148962 6.366847,8.308069 3.037988,12.467175c-9.146282,12.954095 -20.781129,22.337445 -33.633326,29.194899c0.140049,0 0.280098,0.020288 0.420147,0.030432c0.010773,-0.010144 0.043092,-0.020288 0.064638,-0.040577c0.21546,0.030432 0.441693,0.040577 0.667926,0.050721c0.861841,0.010144 1.723681,-0.010144 2.574749,-0.101442c1.680589,-0.213027 3.382724,-0.649226 4.94481,-1.197011c9.67416,-3.378006 20.360982,-13.714907 27.977498,-22.712779c6.259117,-7.405238 12.992246,-14.536584 4.427706,-23.077969c-2.779436,-2.769356 -6.26989,-5.214099 -8.499902,-7.080625l-27.158749,-22.611337c-1.852957,-1.38975 -3.770552,-2.809933 -5.763558,-4.290981c-0.570969,-0.426055 -1.152712,-0.85211 -1.745227,-1.288309c-6.075976,-4.48372 -5.203362,-3.246132 1.163485,-6.512552c26.059903,-13.390294 39.612345,-36.661002 36.132664,-64.811052c1.605178,-4.159106 3.415043,-8.034176 5.580417,-11.402038c3.910601,-6.086497 8.984687,-11.178867 12.86297,-17.478391c9.695706,-15.784316 19.897743,-39.582521 -0.140049,-37.350805c0.053865,-0.537641 0.021546,-1.115858 0.053865,-1.663643c-1.012663,20.298469 -16.439608,38.781132 -18.766577,49.584665c-0.840295,3.87507 -3.167264,7.151634 -6.59308,2.840365c-27.34189,-34.439431 -65.381376,-30.970127 -89.717598,-13.309141c-4.772442,3.449015 -7.368736,7.658842 -11.677939,11.26002c-1.659043,1.399894 -3.533546,2.627338 -5.763558,3.560601c-8.004344,3.367862 -19.466823,3.164979 -28.085228,4.402566c-14.769792,2.109986 -29.162528,4.706891 -42.779609,8.23706c-2.693252,0.304325 -4.567755,-0.040577 -5.612736,-1.02456c-2.273104,-2.109986 0.021546,-8.997872 1.303534,-12.812077c-2.984123,8.166051 -5.774331,16.321957 -8.327534,24.498152c-1.949914,6.370534 -1.486675,11.513624 4.15838,9.778972z" fill-opacity="null" stroke-opacity="null" stroke-width="1.5" fill="#fff"/>
  <path stroke="#000" id="svg_13" d="m1228.245607,1019.724157c45.533692,0 88.345422,18.149608 120.505996,51.074954c32.23454,32.940408 49.956881,76.830829 49.956881,123.537828l70.194077,0c0,-135.677731 -107.976095,-246.036383 -240.671747,-246.036383l0,71.423601l0.014793,0zm0.08876,-126.640582c162.326577,0 294.356532,135.180688 294.356532,301.328673l70.164491,0c0,-205.534893 -163.524832,-372.767337 -364.535816,-372.767337l0,71.438663l0.014793,0zm97.043866,251.398425c0,27.337376 -21.760904,49.508515 -48.595899,49.508515s-48.595899,-22.171139 -48.595899,-49.508515c0,-27.307252 21.760904,-49.478391 48.595899,-49.478391s48.595899,22.156077 48.595899,49.478391z" fill-opacity="null" stroke-opacity="null" stroke-width="1.5" fill="#fff"/>
  <path stroke="#000" id="svg_16" d="m401.653662,465.817646l-74.7733,74.80002l74.78024,74.7861l27.19928,-27.19878l-47.59419,-47.58733l47.5843,-47.58737l-27.19633,-27.21265l0,0.00001zm109.43651,0l-27.17958,27.20575l47.58447,47.58731l-47.58447,47.58151l27.17958,27.19864l74.79021,-74.79295l-74.79021,-74.78026z" fill-opacity="null" stroke-opacity="null" stroke-width="1.5" fill="#fff"/>
  <path id="svg_17" d="m699.535683,698.454928c-11.18457,2.51251 -19.80814,-14.30008 -5.94004,-16.129c12.20336,0.23074 -3.0349,-11.94995 7.98012,-16.05304c12.67021,-12.36537 25.23749,-25.26018 33.3575,-41.17609c-4.09126,-5.42482 -10.84344,-10.60782 -9.96117,-18.03085c7.964,-2.71161 19.82806,-0.87375 20.29981,-13.44502c7.24239,-22.68985 9.1741,-46.67986 10.76167,-70.3136c-7.99255,-6.33596 -24.45116,-0.33371 -35.62089,-3.56097c-16.94488,-4.5746 6.31873,-13.33291 13.78075,-12.6113c6.70493,0.01006 16.63324,-4.12222 5.41084,-7.2804c9.46686,-0.43687 23.08297,-12.44518 7.51486,-16.77373c11.54188,-8.28655 2.64816,-26.31929 -2.17102,-36.68976c-7.265,-12.52285 -19.21146,-21.59242 -32.71435,-26.42871c-2.18616,-12.77 18.63421,-8.99565 27.07909,-9.65835c12.78728,0.48775 25.82639,-0.15282 36.96732,-7.11507c15.05278,-6.96464 27.8495,4.65901 41.61934,7.11611c13.92807,0.89699 28.41634,-2.50577 41.97807,1.44028c4.20209,2.98911 11.18788,7.71034 2.77457,9.97613c-16.06789,8.94404 -31.07338,22.15693 -35.10127,40.92605c-6.0766,10.44077 4.6955,19.50048 -5.15381,26.98807c-0.10249,8.80961 22.85634,10.04067 10.00395,14.37878c8.80815,4.77542 27.69864,1.76332 29.62625,12.3696c-7.99612,6.2903 -19.2092,3.80788 -28.79007,4.39512c-3.2489,1.10706 -11.41316,-2.70125 -10.17032,2.89742c-0.6366,25.08775 5.87923,49.75521 12.1806,73.83221c0.00804,11.79608 29.09497,5.10777 12.92737,18.49597c-11.94247,10.28146 5.56685,24.68452 11.63272,33.82986c8.25099,10.03221 22.89711,15.11021 21.67468,29.8362c8.40468,0.60507 18.40166,13.69095 6.78131,16.95151c-62.8902,1.31946 -125.82766,2.22778 -188.72791,1.83258l0.00003,0z" fill-opacity="null" stroke-opacity="null" stroke-width="1.5" stroke="#000" fill="#fff"/>
  <path id="svg_18" d="m1077.095781,621.158836l233.44794,0.08913l-7.57544,11.19618l-218.20762,-0.26738l-7.66489,-11.01793l0.00001,0zm1.60428,-148.93458l230.3285,-0.26738l6.68439,11.48557l-243.78651,0.08913l6.77362,-11.30732zm-22.73061,74.62911l275.61135,-0.26738l-0.35626,11.48558l-275.07684,-0.17825l-0.17825,-11.03995zm275.8395,1.06528c0,76.03723 -61.86858,137.89429 -137.92784,137.89429c-76.0264,0 -137.88345,-61.86824 -137.88345,-137.89429c0,-76.02642 61.86823,-137.88347 137.88345,-137.88347c76.05927,-0.01117 137.92784,61.85705 137.92784,137.88347zm-137.91701,-148.93459c-82.09525,0 -148.90104,66.8058 -148.90104,148.92339c0,82.12878 66.8058,148.93457 148.90104,148.93457c82.13995,0 148.93459,-66.80579 148.93459,-148.93457c0,-82.11759 -66.79463,-148.92339 -148.93459,-148.92339zm41.78581,148.93459c0,81.25211 -22.01353,137.89429 -41.78581,137.89429c-19.74991,0 -41.76309,-56.64218 -41.76309,-137.89429c0,-81.27448 22.00233,-137.88347 41.76309,-137.88347c19.76112,-0.01117 41.78581,56.60899 41.78581,137.88347zm-41.78581,-148.93459c-34.29579,0 -52.80304,76.73613 -52.80304,148.92339c0,72.2093 18.50725,148.93457 52.80304,148.93457c34.29614,0 52.83693,-76.73643 52.83693,-148.93457c-0.01118,-72.18726 -18.54079,-148.92339 -52.83693,-148.92339zm97.86217,148.93459c0,76.03723 -43.91597,137.89429 -97.86217,137.89429c-53.93499,0 -97.82862,-61.86824 -97.82862,-137.89429c0,-76.02642 43.89363,-137.88347 97.82862,-137.88347c53.9462,-0.01117 97.86217,61.85705 97.86217,137.88347zm-97.86217,-148.93459c-60.01537,0 -108.86856,66.8058 -108.86856,148.92339c0,82.12878 48.85319,148.93457 108.86856,148.93457c60.03773,0 108.88008,-66.80579 108.88008,-148.93457c0,-82.11759 -48.84235,-148.92339 -108.88008,-148.92339z" fill-opacity="null" stroke-opacity="null" stroke-width="1.5" stroke="#000" fill="#fff"/>
  <path stroke="#000" id="svg_20" d="m317.463792,1189.347498c0,4.859725 -3.823534,8.79695 -8.542969,8.79695l-54.706863,0c-4.719411,0 -8.542957,-3.937213 -8.542957,-8.79695l0,-119.682211c0,-4.85935 3.823534,-8.79695 8.542957,-8.79695l54.706863,0c4.719435,0 8.542969,3.9376 8.542969,8.79695l0,119.682211zm-202.539924,0c0,4.859725 -3.824286,8.79695 -8.542969,8.79695l-54.707603,0c-4.718682,0 -8.542957,-3.937213 -8.542957,-8.79695l0,-119.682211c0,-4.85935 3.824274,-8.79695 8.542957,-8.79695l54.707603,0c4.718682,0 8.542969,3.9376 8.542969,8.79695l0,119.682211zm66.093301,-324.530644c-98.994827,0 -179.355682,82.001745 -180.589828,183.628744l31.340943,0c1.016267,-83.995833 67.436745,-151.767831 149.248886,-151.767831c81.812128,0 148.232643,67.771998 149.237029,151.767831l31.340214,0c-1.221574,-101.626999 -81.606069,-183.628744 -180.577255,-183.628744l0.000012,0zm-180.335759,276.720054l30.772244,0l0,-93.278389l-30.772244,0l0,93.278389zm329.318754,-93.290949l0,93.278789l31.908877,0l0,-93.278789l-31.908877,0z" fill-opacity="null" stroke-opacity="null" stroke-width="1.5" fill="#fff"/>
 </g>
</svg>